<?xml version="1.0" encoding="utf-8"?>
<!-- Generator: Adobe Illustrator 22.1.0, SVG Export Plug-In . SVG Version: 6.00 Build 0)  -->
<svg version="1.1" id="圖層_1" xmlns="http://www.w3.org/2000/svg" xmlns:xlink="http://www.w3.org/1999/xlink" x="0px" y="0px"
	 viewBox="0 0 32 32" style="enable-background:new 0 0 32 32;" xml:space="preserve">
<style type="text/css">
	.st0{fill:#FFFFFF;}
	.st1{fill:#82D8F9;}
	.st2{font-family:'Chalkboard';}
	.st3{font-size:32px;}
</style>
<g>
	<polygon class="st0" points="10,13 10,13 10,13 10,13 10,13 10,13 10,13 10,13 	"/>
	<polygon points="10,13 10,13 10,13 10,13 10,13 	"/>
</g>
<g>
	<circle class="st1" cx="16" cy="16" r="15.5"/>
	<path class="st1" d="M16,1c8.3,0,15,6.7,15,15c0,8.3-6.7,15-15,15C7.7,31,1,24.3,1,16C1,7.7,7.7,1,16,1 M16,0L16,0
		C7.2,0,0,7.2,0,16v0c0,8.8,7.2,16,16,16h0c8.8,0,16-7.2,16-16v0C32,7.2,24.8,0,16,0L16,0z"/>
</g>
<text transform="matrix(1 0 0 1 6.8394 26.3779)" class="st0 st2 st3">B</text>
</svg>
